<?xml version="1.0" encoding="iso-8859-1"?>
<svg version="1.1" id="Capa_1" xmlns="http://www.w3.org/2000/svg" xmlns:xlink="http://www.w3.org/1999/xlink" x="0px" y="0px"
	viewBox="0 0 476.917 476.917" style="enable-background:new 0 0 476.917 476.917;" xml:space="preserve">

	<path d="M399.135,0L90.503,308.633l77.781,77.782L476.917,77.783L399.135,0z M434.491,77.783l-160.14,160.14l-35.355-35.355
		l160.14-160.141L434.491,77.783z M132.928,308.633l84.853-84.853l35.355,35.355l-84.853,84.853L132.928,308.633z"/>
	<rect x="0.001" y="321.917" width="50" height="30"/>
	<rect x="125" y="426.917" width="30" height="50"/>
	<path d="M65.753,283.887l-35.355-35.355l21.213-21.213l35.355,35.355L65.753,283.887z M228.39,446.524l-35.355-35.355
		l21.213-21.213l35.355,35.355L228.39,446.524z M51.606,446.519l-21.213-21.213l35.355-35.355l21.213,21.213L51.606,446.519z"/>
</svg>
